<svg width="30" height="30" viewBox="0 0 30 30" fill="none" xmlns="http://www.w3.org/2000/svg">
<g id="mdi:delete-circle">
<path id="Vector" d="M15 2.5C21.9125 2.5 27.5 8.0875 27.5 15C27.5 21.9125 21.9125 27.5 15 27.5C8.0875 27.5 2.5 21.9125 2.5 15C2.5 8.0875 8.0875 2.5 15 2.5ZM21.25 8.75H18.125L16.875 7.5H13.125L11.875 8.75H8.75V11.25H21.25V8.75ZM11.25 22.5H18.75C19.0815 22.5 19.3995 22.3683 19.6339 22.1339C19.8683 21.8995 20 21.5815 20 21.25V12.5H10V21.25C10 21.5815 10.1317 21.8995 10.3661 22.1339C10.6005 22.3683 10.9185 22.5 11.25 22.5Z" fill="#BD001C"/>
</g>
</svg>
