<svg width="25" height="25" viewBox="0 0 25 25" fill="none" xmlns="http://www.w3.org/2000/svg">
<g id="ic:baseline-phone-iphone">
<path id="Vector" d="M16.1445 1.04199H7.8112C7.12053 1.04199 6.45815 1.31636 5.96977 1.80473C5.4814 2.29311 5.20703 2.95549 5.20703 3.64616V21.3545C5.20703 22.0452 5.4814 22.7075 5.96977 23.1959C6.45815 23.6843 7.12053 23.9587 7.8112 23.9587H16.1445C16.8352 23.9587 17.4976 23.6843 17.986 23.1959C18.4743 22.7075 18.7487 22.0452 18.7487 21.3545V3.64616C18.7487 2.95549 18.4743 2.29311 17.986 1.80473C17.4976 1.31636 16.8352 1.04199 16.1445 1.04199ZM11.9779 22.917C11.1133 22.917 10.4154 22.2191 10.4154 21.3545C10.4154 20.4899 11.1133 19.792 11.9779 19.792C12.8424 19.792 13.5404 20.4899 13.5404 21.3545C13.5404 22.2191 12.8424 22.917 11.9779 22.917ZM16.6654 18.7503H7.29036V4.16699H16.6654V18.7503Z" fill="#595757"/>
</g>
</svg>
