<svg width="25" height="25" viewBox="0 0 25 25" fill="none" xmlns="http://www.w3.org/2000/svg">
<g id="mingcute:user-4-fill" clip-path="url(#clip0_1733_8279)">
<g id="Group">
<path id="Vector" fill-rule="evenodd" clip-rule="evenodd" d="M12.4987 2.08301C6.74557 2.08301 2.08203 6.74655 2.08203 12.4997C2.08203 18.2528 6.74557 22.9163 12.4987 22.9163C18.2518 22.9163 22.9154 18.2528 22.9154 12.4997C22.9154 6.74655 18.2518 2.08301 12.4987 2.08301ZM8.85287 9.89551C8.85287 9.41673 8.94717 8.94264 9.13039 8.50031C9.31361 8.05798 9.58216 7.65606 9.92071 7.31751C10.2593 6.97897 10.6612 6.71042 11.1035 6.5272C11.5458 6.34398 12.0199 6.24967 12.4987 6.24967C12.9775 6.24967 13.4516 6.34398 13.8939 6.5272C14.3362 6.71042 14.7381 6.97897 15.0767 7.31751C15.4152 7.65606 15.6838 8.05798 15.867 8.50031C16.0502 8.94264 16.1445 9.41673 16.1445 9.89551C16.1445 10.8624 15.7604 11.7898 15.0767 12.4735C14.393 13.1572 13.4656 13.5413 12.4987 13.5413C11.5318 13.5413 10.6044 13.1572 9.92071 12.4735C9.23698 11.7898 8.85287 10.8624 8.85287 9.89551ZM19.0174 17.6913C18.2377 18.6722 17.2464 19.4642 16.1176 20.0082C14.9888 20.5522 13.7517 20.8342 12.4987 20.833C11.2457 20.8342 10.0086 20.5522 8.87977 20.0082C7.75099 19.4642 6.7597 18.6722 5.97995 17.6913C7.66849 16.4799 9.97266 15.6247 12.4987 15.6247C15.0247 15.6247 17.3289 16.4799 19.0174 17.6913Z" fill="#595757"/>
</g>
</g>
<defs>
<clipPath id="clip0_1733_8279">
<rect width="25" height="25" fill="white"/>
</clipPath>
</defs>
</svg>
