<svg width="25" height="25" viewBox="0 0 25 25" fill="none" xmlns="http://www.w3.org/2000/svg">
<g id="fluent:location-28-filled">
<path id="Vector" d="M12.4983 2.00879C14.8071 2.00879 17.0214 2.92596 18.6539 4.55853C20.2865 6.1911 21.2037 8.40534 21.2037 10.7141C21.2037 14.3927 18.6189 18.4016 13.5162 22.7838C13.2325 23.0275 12.8707 23.1614 12.4967 23.1611C12.1226 23.1607 11.7611 23.0262 11.4778 22.782L11.1403 22.4891C6.2635 18.2213 3.79297 14.3106 3.79297 10.7141C3.79297 8.40534 4.71014 6.1911 6.34271 4.55853C7.97528 2.92596 10.1895 2.00879 12.4983 2.00879ZM12.4983 7.36593C11.6103 7.36593 10.7587 7.71869 10.1308 8.3466C9.50287 8.97451 9.15011 9.82614 9.15011 10.7141C9.15011 11.6021 9.50287 12.4538 10.1308 13.0817C10.7587 13.7096 11.6103 14.0624 12.4983 14.0624C13.3863 14.0624 14.238 13.7096 14.8659 13.0817C15.4938 12.4538 15.8465 11.6021 15.8465 10.7141C15.8465 9.82614 15.4938 8.97451 14.8659 8.3466C14.238 7.71869 13.3863 7.36593 12.4983 7.36593Z" fill="#595757"/>
</g>
</svg>
