<svg width="30" height="30" viewBox="0 0 30 30" fill="none" xmlns="http://www.w3.org/2000/svg">
<g id="basil:edit-solid">
<path id="Vector" d="M20.5943 3.75508C20.8031 3.77383 20.8943 4.02883 20.7443 4.17758L10.3443 14.5776C10.2268 14.6951 10.1427 14.8418 10.1006 15.0026L8.85057 19.7901C8.8093 19.9483 8.81014 20.1145 8.85298 20.2723C8.89582 20.4301 8.97919 20.574 9.09481 20.6896C9.21042 20.8052 9.35427 20.8886 9.51206 20.9314C9.66985 20.9743 9.8361 20.9751 9.99432 20.9338L14.7806 19.6838C14.9414 19.6413 15.0881 19.5567 15.2056 19.4388L25.7531 8.89133C25.7861 8.85745 25.8281 8.83373 25.8741 8.82299C25.9202 8.81225 25.9684 8.81493 26.0129 8.83071C26.0575 8.84649 26.0967 8.87471 26.1257 8.91204C26.1547 8.94937 26.1725 8.99423 26.1768 9.04133C26.6156 13.2284 26.5905 17.4511 26.1018 21.6326C25.8231 24.0138 23.9093 25.8826 21.5368 26.1488C17.1914 26.6306 12.806 26.6306 8.46057 26.1488C6.08682 25.8826 4.17307 24.0138 3.89432 21.6326C3.37898 17.2263 3.37898 12.7751 3.89432 8.36883C4.17307 5.98633 6.08682 4.11758 8.46057 3.85258C12.4912 3.4059 16.557 3.37323 20.5943 3.75508Z" fill="#3A9978"/>
<path id="Vector_2" d="M22.2779 5.29591C22.307 5.26681 22.3414 5.24372 22.3794 5.22796C22.4174 5.21221 22.4581 5.2041 22.4992 5.2041C22.5403 5.2041 22.581 5.21221 22.6189 5.22796C22.6569 5.24372 22.6914 5.26681 22.7204 5.29591L24.4879 7.06466C24.5463 7.12324 24.5791 7.20257 24.5791 7.28528C24.5791 7.368 24.5463 7.44733 24.4879 7.50591L14.1217 17.8747C14.0822 17.9138 14.033 17.9418 13.9792 17.9559L11.5867 18.5809C11.5339 18.5947 11.4785 18.5944 11.4259 18.5801C11.3733 18.5658 11.3254 18.538 11.2868 18.4995C11.2483 18.461 11.2205 18.413 11.2062 18.3604C11.192 18.3078 11.1917 18.2524 11.2054 18.1997L11.8304 15.8072C11.8443 15.7533 11.8724 15.7041 11.9117 15.6647L22.2779 5.29591Z" fill="#3A9978"/>
</g>
</svg>
