<svg width="31" height="31" viewBox="0 0 31 31" fill="none" xmlns="http://www.w3.org/2000/svg">
<g id="ic:round-warning">
<path id="Vector" d="M5.7726 27.1252H25.2251C27.2143 27.1252 28.4543 24.9682 27.4597 23.2502L17.7334 6.44566C16.7389 4.72775 14.2589 4.72775 13.2643 6.44566L3.53802 23.2502C2.54344 24.9682 3.78344 27.1252 5.7726 27.1252ZM15.4989 18.0836C14.7884 18.0836 14.2072 17.5023 14.2072 16.7919V14.2086C14.2072 13.4982 14.7884 12.9169 15.4989 12.9169C16.2093 12.9169 16.7905 13.4982 16.7905 14.2086V16.7919C16.7905 17.5023 16.2093 18.0836 15.4989 18.0836ZM16.7905 23.2502H14.2072V20.6669H16.7905V23.2502Z" fill="#BD001C"/>
</g>
</svg>
