<svg width="25" height="25" viewBox="0 0 25 25" fill="none" xmlns="http://www.w3.org/2000/svg">
<g id="iconamoon:delivery-light">
<path id="Vector" d="M2.08301 3.125V2.34375C1.87581 2.34375 1.67709 2.42606 1.53058 2.57257C1.38407 2.71909 1.30176 2.9178 1.30176 3.125H2.08301ZM13.5413 3.125H14.3226C14.3226 2.9178 14.2403 2.71909 14.0938 2.57257C13.9473 2.42606 13.7485 2.34375 13.5413 2.34375V3.125ZM13.5413 9.375V8.59375C13.3341 8.59375 13.1354 8.67606 12.9889 8.82257C12.8424 8.96909 12.7601 9.1678 12.7601 9.375H13.5413ZM2.08301 3.90625H13.5413V2.34375H2.08301V3.90625ZM12.7601 3.125V19.7917H14.3226V3.125H12.7601ZM2.86426 17.7083V3.125H1.30176V17.7083H2.86426ZM13.5413 10.1562H18.7497V8.59375H13.5413V10.1562ZM22.1351 13.5417V17.7083H23.6976V13.5417H22.1351ZM14.3226 19.7917V9.375H12.7601V19.7917H14.3226ZM19.6705 20.7125C19.5496 20.8334 19.406 20.9294 19.248 20.9948C19.09 21.0603 18.9207 21.094 18.7497 21.094C18.5787 21.094 18.4093 21.0603 18.2513 20.9948C18.0933 20.9294 17.9498 20.8334 17.8288 20.7125L16.7247 21.8167C17.2619 22.3539 17.9905 22.6556 18.7502 22.6556C19.5099 22.6556 20.2385 22.3539 20.7757 21.8167L19.6705 20.7125ZM17.8288 18.8708C17.9498 18.7499 18.0933 18.6539 18.2513 18.5885C18.4093 18.523 18.5787 18.4893 18.7497 18.4893C18.9207 18.4893 19.09 18.523 19.248 18.5885C19.406 18.6539 19.5496 18.7499 19.6705 18.8708L20.7747 17.7667C20.2375 17.2295 19.5089 16.9277 18.7492 16.9277C17.9894 16.9277 17.2608 17.2295 16.7236 17.7667L17.8288 18.8708ZM7.17051 20.7125C7.04959 20.8334 6.90604 20.9294 6.74804 20.9948C6.59004 21.0603 6.4207 21.094 6.24967 21.094C6.07865 21.094 5.90931 21.0603 5.75131 20.9948C5.59331 20.9294 5.44976 20.8334 5.32884 20.7125L4.22467 21.8167C4.76188 22.3539 5.49048 22.6556 6.2502 22.6556C7.00991 22.6556 7.73851 22.3539 8.27572 21.8167L7.17051 20.7125ZM5.32884 18.8708C5.44976 18.7499 5.59331 18.6539 5.75131 18.5885C5.90931 18.523 6.07865 18.4893 6.24967 18.4893C6.4207 18.4893 6.59004 18.523 6.74804 18.5885C6.90604 18.6539 7.04959 18.7499 7.17051 18.8708L8.27467 17.7667C7.73746 17.2295 7.00887 16.9277 6.24915 16.9277C5.48944 16.9277 4.76084 17.2295 4.22363 17.7667L5.32884 18.8708ZM19.6705 18.8708C19.9247 19.125 20.0518 19.4573 20.0518 19.7917H21.6143C21.6143 19.0594 21.3341 18.325 20.7757 17.7656L19.6705 18.8708ZM20.0518 19.7917C20.0518 20.126 19.9247 20.4583 19.6705 20.7125L20.7757 21.8167C21.0421 21.551 21.2523 21.2354 21.3964 20.8879C21.5405 20.5404 21.6145 20.1679 21.6143 19.7917H20.0518ZM16.6663 19.0104H13.5413V20.5729H16.6663V19.0104ZM17.8288 20.7125C17.7077 20.5918 17.6116 20.4482 17.5462 20.2902C17.4807 20.1322 17.4472 19.9627 17.4476 19.7917H15.8851C15.8851 20.524 16.1653 21.2583 16.7236 21.8177L17.8288 20.7125ZM17.4476 19.7917C17.4476 19.4573 17.5747 19.125 17.8288 18.8708L16.7236 17.7667C16.4573 18.0323 16.247 18.3479 16.103 18.6954C15.9589 19.0429 15.8848 19.4155 15.8851 19.7917H17.4476ZM5.32884 20.7125C5.20766 20.5918 5.11158 20.4482 5.04615 20.2902C4.98071 20.1322 4.94722 19.9627 4.94759 19.7917H3.38509C3.38509 20.524 3.6653 21.2583 4.22363 21.8177L5.32884 20.7125ZM4.94759 19.7917C4.94759 19.4573 5.07467 19.125 5.32884 18.8708L4.22467 17.7667C3.95836 18.0323 3.74711 18.348 3.60304 18.6955C3.45896 19.043 3.3849 19.4155 3.38509 19.7917H4.94759ZM13.5413 19.0104H8.33301V20.5729H13.5413V19.0104ZM7.17051 18.8708C7.42467 19.125 7.55176 19.4573 7.55176 19.7917H9.11426C9.11426 19.0594 8.83405 18.325 8.27572 17.7656L7.17051 18.8708ZM7.55176 19.7917C7.55176 20.126 7.42467 20.4583 7.17051 20.7125L8.27467 21.8167C8.54099 21.551 8.75224 21.2353 8.89631 20.8879C9.04039 20.5404 9.11445 20.1678 9.11426 19.7917H7.55176ZM22.1351 17.7083C22.1351 18.4271 21.5518 19.0104 20.833 19.0104V20.5729C21.5927 20.5729 22.3214 20.2711 22.8586 19.7339C23.3958 19.1967 23.6976 18.4681 23.6976 17.7083H22.1351ZM18.7497 10.1562C19.6475 10.1562 20.5086 10.5129 21.1435 11.1478C21.7784 11.7827 22.1351 12.6438 22.1351 13.5417H23.6976C23.6976 12.2294 23.1763 10.9709 22.2484 10.043C21.3205 9.11505 20.0619 8.59375 18.7497 8.59375V10.1562ZM1.30176 17.7083C1.30176 18.4681 1.60356 19.1967 2.14077 19.7339C2.67799 20.2711 3.40661 20.5729 4.16634 20.5729V19.0104C3.44759 19.0104 2.86426 18.4271 2.86426 17.7083H1.30176Z" fill="#3a9978"/>
</g>
</svg>
