<svg width="25" height="25" viewBox="0 0 25 25" fill="none" xmlns="http://www.w3.org/2000/svg">
<g id="material-symbols:fingerprint">
<path id="Vector" d="M3.5569 10.1646C3.438 10.0797 3.36564 9.97334 3.33982 9.84561C3.314 9.71788 3.35239 9.5864 3.45498 9.4512C4.50811 8.0074 5.82893 6.88633 7.41745 6.08799C9.00598 5.28965 10.7001 4.89048 12.5 4.89048C14.3005 4.89048 15.9991 5.27708 17.5957 6.05028C19.1924 6.82348 20.5258 7.94013 21.5959 9.40024C21.6978 9.55311 21.7318 9.689 21.6978 9.8079C21.6639 9.9268 21.5959 10.0287 21.494 10.1136C21.3921 10.1986 21.2732 10.237 21.1373 10.2288C21.0014 10.2207 20.8825 10.1483 20.7806 10.0117C19.8464 8.68683 18.6448 7.67209 17.1759 6.96752C15.7069 6.26294 14.1483 5.91032 12.5 5.90964C10.8523 5.90964 9.30663 6.26226 7.86282 6.96752C6.41902 7.67277 5.22152 8.68751 4.27031 10.0117C4.16839 10.1646 4.04949 10.2495 3.9136 10.2665C3.77771 10.2835 3.65881 10.2495 3.5569 10.1646ZM15.3791 22.7257C13.6126 22.284 12.1688 21.4049 11.0477 20.0881C9.92661 18.7714 9.36608 17.1621 9.36608 15.2604C9.36608 14.4111 9.67182 13.6977 10.2833 13.1202C10.8948 12.5426 11.6337 12.2539 12.5 12.2539C13.3663 12.2539 14.1051 12.5426 14.7166 13.1202C15.3281 13.6977 15.6339 14.4111 15.6339 15.2604C15.6339 15.8209 15.8462 16.2924 16.2708 16.675C16.6955 17.0575 17.1966 17.2484 17.7741 17.2477C18.3516 17.2477 18.8442 17.0565 19.2519 16.6739C19.6595 16.2914 19.8634 15.8202 19.8634 15.2604C19.8634 13.29 19.1415 11.6339 17.6977 10.292C16.2539 8.95011 14.5298 8.27917 12.5255 8.27917C10.5211 8.27917 8.79705 8.95011 7.35325 10.292C5.90945 11.6339 5.18754 13.2815 5.18754 15.2349C5.18754 15.6426 5.22593 16.1521 5.30271 16.7636C5.37948 17.3751 5.56191 18.0885 5.84999 18.9039C5.90095 19.0567 5.89688 19.1926 5.83776 19.3115C5.77865 19.4304 5.68081 19.5153 5.54425 19.5663C5.40836 19.6173 5.27655 19.6128 5.14882 19.5531C5.02108 19.4933 4.93208 19.3958 4.8818 19.2606C4.62701 18.5981 4.44458 17.9397 4.33451 17.2854C4.22444 16.6311 4.16907 15.9561 4.16839 15.2604C4.16839 13.0013 4.98813 11.1073 6.62761 9.57859C8.26709 8.04986 10.2245 7.28549 12.5 7.28549C14.7931 7.28549 16.7634 8.04986 18.4111 9.57859C20.0587 11.1073 20.8825 13.0013 20.8825 15.2604C20.8825 16.1097 20.5812 16.8187 19.9785 17.3874C19.3759 17.956 18.6411 18.2407 17.7741 18.2414C16.9078 18.2414 16.1645 17.9567 15.5442 17.3874C14.9239 16.818 14.614 16.109 14.6147 15.2604C14.6147 14.6998 14.4068 14.2283 13.991 13.8458C13.5752 13.4633 13.0782 13.2723 12.5 13.273C11.9225 13.273 11.4254 13.4643 11.009 13.8468C10.5925 14.2293 10.3846 14.7005 10.3852 15.2604C10.3852 16.908 10.8737 18.2839 11.8508 19.388C12.8278 20.492 14.0888 21.2649 15.6339 21.7065C15.7867 21.7575 15.8887 21.8424 15.9396 21.9613C15.9906 22.0802 15.9991 22.2076 15.9651 22.3435C15.9311 22.4624 15.8632 22.5643 15.7613 22.6492C15.6594 22.7342 15.532 22.7597 15.3791 22.7257ZM6.86915 4.83952C6.73326 4.92445 6.59737 4.94586 6.46149 4.90373C6.3256 4.86161 6.22368 4.77226 6.15574 4.63569C6.0878 4.49981 6.07081 4.37683 6.10478 4.26676C6.13875 4.15669 6.22368 4.05885 6.35957 3.97324C7.31078 3.46367 8.30446 3.07299 9.3406 2.80122C10.3767 2.52944 11.4299 2.39355 12.5 2.39355C13.5871 2.39355 14.6487 2.52537 15.6848 2.78899C16.721 3.05261 17.7231 3.43037 18.6913 3.92229C18.8442 4.00722 18.9336 4.10913 18.9594 4.22803C18.9852 4.34693 18.9723 4.46583 18.9206 4.58474C18.8697 4.70364 18.7848 4.79706 18.6659 4.865C18.547 4.93295 18.4026 4.92445 18.2327 4.83952C17.3325 4.38091 16.4023 4.02828 15.4423 3.78164C14.4822 3.53501 13.5015 3.41203 12.5 3.41271C11.5148 3.41271 10.5466 3.52753 9.59539 3.75718C8.64418 3.98683 7.73543 4.34761 6.86915 4.83952ZM9.87565 22.369C8.87349 21.3159 8.1047 20.2413 7.56931 19.1454C7.03391 18.0495 6.76655 16.7545 6.76723 15.2604C6.76723 13.7147 7.32777 12.4108 8.44884 11.3489C9.56991 10.2869 10.9203 9.75626 12.5 9.75694C14.0797 9.75694 15.4385 10.2879 16.5766 11.3499C17.7146 12.4118 18.2837 13.7153 18.2837 15.2604C18.2837 15.4132 18.2368 15.5366 18.143 15.6303C18.0493 15.7241 17.9263 15.7706 17.7741 15.77C17.6382 15.77 17.5193 15.7231 17.4174 15.6293C17.3155 15.5355 17.2645 15.4126 17.2645 15.2604C17.2645 13.9864 16.793 12.9204 15.8499 12.0623C14.9069 11.2041 13.7902 10.7754 12.5 10.7761C11.209 10.7761 10.1005 11.2052 9.17448 12.0633C8.2484 12.9214 7.78571 13.9871 7.78639 15.2604C7.78639 16.6362 8.02419 17.8042 8.4998 18.7642C8.9754 19.7243 9.67182 20.6881 10.5891 21.6556C10.691 21.7575 10.7419 21.8764 10.7419 22.0123C10.7419 22.1482 10.691 22.2671 10.5891 22.369C10.4871 22.4709 10.3682 22.5219 10.2324 22.5219C10.0965 22.5219 9.97757 22.4709 9.87565 22.369ZM17.5703 20.6364C16.0585 20.6364 14.7462 20.1268 13.6333 19.1077C12.5204 18.0885 11.9642 16.8061 11.9649 15.2604C11.9649 15.1245 12.0118 15.0056 12.1056 14.9037C12.1993 14.8018 12.3223 14.7508 12.4745 14.7508C12.6274 14.7508 12.7507 14.8018 12.8444 14.9037C12.9382 15.0056 12.9848 15.1245 12.9841 15.2604C12.9841 16.5343 13.4427 17.579 14.3599 18.3943C15.2772 19.2096 16.3473 19.6173 17.5703 19.6173C17.6722 19.6173 17.8166 19.6088 18.0034 19.5918C18.1903 19.5748 18.3856 19.5493 18.5894 19.5153C18.7423 19.4814 18.8741 19.5028 18.9849 19.5796C19.0956 19.6563 19.1676 19.7708 19.2009 19.923C19.2349 20.0589 19.2094 20.1778 19.1245 20.2797C19.0395 20.3816 18.9291 20.4496 18.7933 20.4835C18.4875 20.5685 18.2201 20.6154 17.9912 20.6242C17.7622 20.633 17.6219 20.6371 17.5703 20.6364Z" fill="white"/>
</g>
</svg>
