<svg width="25" height="25" viewBox="0 0 25 25" fill="none" xmlns="http://www.w3.org/2000/svg">
<g id="fluent:mail-32-filled">
<path id="Vector" d="M2.40337 7.25091C2.44122 6.38711 2.81102 5.57125 3.43566 4.97342C4.0603 4.3756 4.89159 4.04193 5.75621 4.04199H19.9252C20.7899 4.04193 21.6212 4.3756 22.2458 4.97342C22.8704 5.57125 23.2402 6.38711 23.2781 7.25091L22.1774 7.86241L12.8407 12.8894L3.50408 7.86241L2.40337 7.25091ZM2.40039 8.95492V17.0924C2.40039 17.9824 2.75395 18.836 3.38329 19.4653C4.01263 20.0947 4.86619 20.4482 5.75621 20.4482H19.9252C20.8153 20.4482 21.6688 20.0947 22.2982 19.4653C22.9275 18.836 23.2811 17.9824 23.2811 17.0924V8.95492L22.8888 9.17342L13.1942 14.3936C13.0856 14.4521 12.9641 14.4827 12.8407 14.4827C12.7173 14.4827 12.5959 14.4521 12.4873 14.3936L2.7837 9.1682L2.40039 8.95492Z" fill="white"/>
</g>
</svg>
