<svg width="21" height="21" viewBox="0 0 21 21" fill="none" xmlns="http://www.w3.org/2000/svg">
<g id="ph:link-bold">
<path id="Vector" d="M11.1866 15.3835C11.2783 15.4749 11.3511 15.5836 11.4008 15.7033C11.4505 15.8229 11.4761 15.9512 11.4761 16.0808C11.4761 16.2103 11.4505 16.3386 11.4008 16.4583C11.3511 16.5779 11.2783 16.6866 11.1866 16.778L10.6993 17.2653C9.77596 18.1886 8.52367 18.7073 7.21789 18.7073C5.9121 18.7073 4.65981 18.1886 3.73648 17.2653C2.81315 16.342 2.29443 15.0897 2.29443 13.7839C2.29443 12.4781 2.81315 11.2258 3.73648 10.3025L5.71507 8.32471C6.60223 7.43536 7.79586 6.91887 9.05147 6.88105C10.3071 6.84323 11.5296 7.28693 12.4687 8.12127C12.5657 8.20745 12.6447 8.31188 12.7013 8.4286C12.7579 8.54532 12.7909 8.67205 12.7985 8.80154C12.8062 8.93104 12.7882 9.06076 12.7457 9.18332C12.7032 9.30587 12.6369 9.41885 12.5507 9.5158C12.4646 9.61275 12.3601 9.69178 12.2434 9.74837C12.1267 9.80497 12 9.83801 11.8705 9.84563C11.741 9.85325 11.6112 9.83529 11.4887 9.79277C11.3661 9.75025 11.2532 9.68401 11.1562 9.59783C10.5931 9.09771 9.86014 8.83164 9.10732 8.85406C8.35451 8.87647 7.6387 9.18567 7.10632 9.71842L5.12937 11.6937C4.57546 12.2476 4.26428 12.9989 4.26428 13.7822C4.26428 14.5656 4.57546 15.3169 5.12937 15.8708C5.68328 16.4247 6.43454 16.7359 7.21789 16.7359C8.00123 16.7359 8.75249 16.4247 9.3064 15.8708L9.79367 15.3835C9.88509 15.292 9.99365 15.2194 10.1132 15.1698C10.2327 15.1203 10.3608 15.0948 10.4901 15.0948C10.6195 15.0948 10.7476 15.1203 10.8671 15.1698C10.9866 15.2194 11.0951 15.292 11.1866 15.3835ZM17.2634 3.73506C16.3394 2.81315 15.0873 2.29541 13.782 2.29541C12.4767 2.29541 11.2247 2.81315 10.3006 3.73506L9.81335 4.22232C9.62843 4.40725 9.52454 4.65806 9.52454 4.91959C9.52454 5.18111 9.62843 5.43193 9.81335 5.61685C9.99828 5.80178 10.2491 5.90567 10.5106 5.90567C10.7721 5.90567 11.023 5.80178 11.2079 5.61685L11.6952 5.12959C12.2491 4.57568 13.0003 4.2645 13.7837 4.2645C14.567 4.2645 15.3183 4.57568 15.8722 5.12959C16.4261 5.6835 16.7373 6.43476 16.7373 7.2181C16.7373 8.00145 16.4261 8.75271 15.8722 9.30662L13.8944 11.2852C13.3616 11.8177 12.6454 12.1265 11.8924 12.1483C11.1393 12.1701 10.4065 11.9033 9.84371 11.4025C9.74675 11.3163 9.63378 11.2501 9.51122 11.2076C9.38867 11.1651 9.25894 11.1471 9.12945 11.1547C8.99996 11.1623 8.87323 11.1954 8.75651 11.252C8.63979 11.3086 8.53535 11.3876 8.44917 11.4845C8.36299 11.5815 8.29676 11.6945 8.25424 11.817C8.21172 11.9396 8.19376 12.0693 8.20137 12.1988C8.20899 12.3283 8.24204 12.455 8.29863 12.5717C8.35522 12.6885 8.43425 12.7929 8.53121 12.8791C9.46963 13.7132 10.6914 14.1572 11.9464 14.1202C13.2014 14.0831 14.3948 13.5678 15.2824 12.6797L17.261 10.702C18.184 9.77812 18.7026 8.52576 18.7031 7.21984C18.7035 5.91393 18.1858 4.6612 17.2634 3.7367V3.73506Z" fill="#595757"/>
</g>
</svg>
