<svg width="25" height="25" viewBox="0 0 25 25" fill="none" xmlns="http://www.w3.org/2000/svg">
<g id="fluent-mdl2:product-release">
<path id="Vector" d="M10.9375 18.7622V11.4258L3.125 7.51953V18.2617L9.76562 21.5942L9.38721 23.1445L1.5625 19.2383V5.76172L11.7188 0.695801L21.875 5.76172V9.05762C21.3053 9.14714 20.7845 9.33024 20.3125 9.60693V7.51953L12.5 11.4258V17.1997L10.9375 18.7622ZM9.2041 3.68652L16.333 7.76367L19.3481 6.25L11.7188 2.4292L9.2041 3.68652ZM11.7188 10.0708L14.6484 8.60596L7.51953 4.52881L4.08936 6.25L11.7188 10.0708ZM22.5586 10.9375C22.9004 10.9375 23.2178 10.9985 23.5107 11.1206C23.8037 11.2427 24.0641 11.4095 24.292 11.6211C24.5199 11.8327 24.6908 12.089 24.8047 12.3901C24.9186 12.6912 24.9837 13.0127 25 13.3545C25 13.6719 24.939 13.9811 24.8169 14.2822C24.6948 14.5833 24.5199 14.8478 24.292 15.0757L15.5396 23.8281L10.9375 24.9756L12.085 20.3735L20.8374 11.6333C21.0734 11.3973 21.3379 11.2223 21.6309 11.1084C21.9238 10.9945 22.2331 10.9375 22.5586 10.9375ZM23.1812 13.9771C23.3521 13.8062 23.4375 13.5986 23.4375 13.3545C23.4375 13.1022 23.3561 12.8988 23.1934 12.7441C23.0306 12.5895 22.819 12.5081 22.5586 12.5C22.4447 12.5 22.3348 12.5163 22.229 12.5488C22.1232 12.5814 22.0296 12.6424 21.9482 12.7319L13.501 21.1792L13.0859 22.8271L14.7339 22.4121L23.1812 13.9771Z" fill="white"/>
</g>
</svg>
