<svg width="27" height="27" viewBox="0 0 27 27" fill="none" xmlns="http://www.w3.org/2000/svg">
<g id="ri:service-line">
<path id="Vector" d="M3.55681 5.0286C4.86174 3.72313 6.61209 2.95945 8.45664 2.89081C10.3012 2.82216 12.1035 3.45361 13.5018 4.65847C14.8988 3.45548 16.6986 2.82453 18.5409 2.89195C20.3833 2.95938 22.1321 3.72019 23.4374 5.02208C24.7427 6.32397 25.5081 8.07085 25.5804 9.913C25.6526 11.7551 25.0264 13.5566 23.8271 14.9567L15.0914 23.7216C14.6901 24.1231 14.1518 24.358 13.5845 24.3793C13.0172 24.4006 12.4629 24.2066 12.0326 23.8363L11.9088 23.7216L3.17431 14.9578C1.97529 13.5589 1.34857 11.7588 1.41949 9.9177C1.4904 8.07657 2.25373 6.3312 3.55681 5.0286ZM5.14756 6.61822C4.22726 7.53851 3.69674 8.77788 3.66615 10.079C3.63557 11.3802 4.10727 12.6431 4.98331 13.6056L5.14756 13.7777L13.5007 22.1308L19.4666 16.1638L15.4897 12.187L14.2972 13.3795C13.9838 13.693 13.6118 13.9417 13.2023 14.1114C12.7929 14.2811 12.354 14.3685 11.9107 14.3686C11.0156 14.3688 10.157 14.0134 9.52381 13.3806C8.89068 12.7478 8.53486 11.8893 8.53465 10.9941C8.53444 10.099 8.88985 9.24036 9.52269 8.60722L11.8874 6.24247C10.9465 5.49124 9.76861 5.0999 8.56517 5.13866C7.36173 5.17742 6.21149 5.64375 5.32081 6.45397L5.14756 6.61822ZM14.6943 9.80085C14.9053 9.58994 15.1914 9.47146 15.4897 9.47146C15.788 9.47146 16.0741 9.58994 16.2851 9.80085L21.0573 14.5731L21.8538 13.7777C22.7892 12.843 23.3217 11.5794 23.3375 10.2571C23.3533 8.93483 22.851 7.65887 21.9382 6.7021C21.0254 5.74533 19.7744 5.1837 18.4529 5.13733C17.1313 5.09096 15.8441 5.56353 14.8664 6.45397L14.6943 6.61822L11.1146 10.198C10.9196 10.3928 10.8029 10.6525 10.7867 10.9277C10.7706 11.2029 10.856 11.4745 11.0268 11.6908L11.1146 11.7898C11.3096 11.9847 11.5693 12.1011 11.8445 12.1171C12.1197 12.1331 12.3912 12.0474 12.6074 11.8765L12.7053 11.7898L14.6943 9.80085Z" fill="white"/>
</g>
</svg>
