<svg width="25" height="25" viewBox="0 0 25 25" fill="none" xmlns="http://www.w3.org/2000/svg">
<g id="solar:password-linear">
<g id="Group">
<path id="Vector" d="M2.2168 12.2446C2.2168 8.49501 2.2168 6.61973 3.38214 5.45538C4.54648 4.29004 6.42177 4.29004 10.1713 4.29004H14.1486C17.8982 4.29004 19.7735 4.29004 20.9378 5.45538C22.1032 6.61973 22.1032 8.49501 22.1032 12.2446C22.1032 15.9942 22.1032 17.8694 20.9378 19.0338C19.7735 20.1991 17.8982 20.1991 14.1486 20.1991H10.1713C6.42177 20.1991 4.54648 20.1991 3.38214 19.0338C2.2168 17.8694 2.2168 15.9942 2.2168 12.2446Z" stroke="white" stroke-width="1.02273"/>
<path id="Vector_2" d="M12.1594 10.2559V14.2331M10.4373 11.2502L13.8816 13.2388M13.8816 11.2502L10.4373 13.2388M6.92237 10.2559V14.2331M5.19922 11.2502L8.64354 13.2388M8.64354 11.2502L5.19922 13.2388M17.3975 10.2559V14.2331M15.6754 11.2502L19.1197 13.2388M19.1197 11.2502L15.6744 13.2388" stroke="white" stroke-width="1.02273" stroke-linecap="round"/>
</g>
</g>
</svg>
