<svg width="20" height="20" viewBox="0 0 61 61" fill="none" xmlns="http://www.w3.org/2000/svg">
  <g id="solar:star-bold">
    <path id="Vector" d="M23.2632 13.745C26.4835 7.97034 28.0923 5.08301 30.4993 5.08301C32.9063 5.08301 34.5151 7.97034 37.7354 13.745L38.5691 15.2395C39.4841 16.8814 39.9416 17.7024 40.6533 18.2438C41.3649 18.7851 42.2545 18.9859 44.0337 19.3875L45.6502 19.7535C51.9027 21.1692 55.0264 21.8758 55.7711 24.2675C56.5133 26.6567 54.3833 29.1501 50.121 34.1343L49.0179 35.4229C47.808 36.8386 47.2006 37.5477 46.9286 38.422C46.6567 39.2989 46.7482 40.2444 46.9312 42.1329L47.0989 43.8536C47.742 50.5051 48.0648 53.8296 46.1178 55.3063C44.1709 56.7856 41.2429 55.436 35.392 52.7418L33.8746 52.0454C32.2124 51.2778 31.3813 50.8965 30.4993 50.8965C29.6173 50.8965 28.7862 51.2778 27.1214 52.0454L25.6091 52.7418C19.7557 55.436 16.8277 56.7831 14.8833 55.3089C12.9338 53.8296 13.2566 50.5051 13.8997 43.8536L14.0674 42.1354C14.2504 40.2444 14.3419 39.2989 14.0674 38.4246C13.798 37.5477 13.1905 36.8386 11.9807 35.4254L10.8776 34.1343C6.61525 29.1526 4.48534 26.6592 5.2275 24.2675C5.97221 21.8758 9.09846 21.1667 15.351 19.7535L16.9675 19.3875C18.7441 18.9859 19.6311 18.7851 20.3453 18.2438C21.057 17.7024 21.5145 16.8814 22.4295 15.2395L23.2632 13.745Z" fill="gold" stroke="gold" stroke-width="6"/>
  </g>
</svg>
