<svg width="20" height="20" viewBox="0 0 54 55" fill="none" xmlns="http://www.w3.org/2000/svg">
<g id="Frame 73">
<path id="Vector" d="M19.685 10.7455C22.9053 4.97083 24.5142 2.0835 26.9212 2.0835C29.3281 2.0835 30.937 4.97083 34.1573 10.7455L34.991 12.24C35.906 13.8819 36.3635 14.7029 37.0751 15.2442C37.7868 15.7856 38.6764 15.9864 40.4555 16.388L42.072 16.754C48.3245 18.1697 51.4483 18.8763 52.193 21.268C52.9351 23.6572 50.8052 26.1505 46.5428 31.1347L45.4397 32.4234C44.2299 33.8391 43.6225 34.5482 43.3505 35.4225C43.0785 36.2994 43.17 37.2449 43.353 39.1334L43.5208 40.8541C44.1638 47.5056 44.4866 50.8301 42.5397 52.3068C40.5928 53.7861 37.6648 52.4365 31.8139 49.7423L30.2965 49.0459C28.6343 48.2783 27.8031 47.897 26.9212 47.897C26.0392 47.897 25.2081 48.2783 23.5433 49.0459L22.031 49.7423C16.1775 52.4365 13.2495 53.7835 11.3052 52.3094C9.35571 50.8301 9.6785 47.5056 10.3215 40.8541L10.4893 39.1359C10.6723 37.2449 10.7638 36.2994 10.4893 35.4251C10.2199 34.5482 9.61242 33.8391 8.40259 32.4259L7.2995 31.1347C3.03713 26.1531 0.907212 23.6597 1.64938 21.268C2.39409 18.8763 5.52034 18.1672 11.7728 16.754L13.3893 16.388C15.166 15.9864 16.053 15.7856 16.7672 15.2442C17.4789 14.7029 17.9364 13.8819 18.8514 12.24L19.685 10.7455Z" stroke="#e6e6e6" stroke-width="3"/>
</g>
</svg>
