<svg width="48" height="48" viewBox="0 0 48 48" fill="none" xmlns="http://www.w3.org/2000/svg">
<g id="layer1">
<path id="path11250" d="M37.2813 41.9687V38.8438C37.2813 37.9781 37.9781 37.2812 38.8438 37.2812H40.4063C41.2719 37.2812 41.9688 37.9781 41.9688 38.8438V45.0938C41.9688 45.9594 41.2719 46.6562 40.4063 46.6562H7.59375C6.72813 46.6562 6.03125 45.9594 6.03125 45.0938V38.8438C6.03125 37.9781 6.72813 37.2812 7.59375 37.2812H9.15625C10.0219 37.2812 10.7188 37.9781 10.7188 38.8438V41.9687H37.2813Z" fill="#38668C"/>
<path id="path11254" d="M9.15625 37.2812V42.75H10.7188V38.8437C10.7188 37.9781 10.0219 37.2812 9.15625 37.2812ZM40.4063 37.2812V43.5312C40.4063 44.3969 39.7094 45.0937 38.8438 45.0937H6.03125C6.03125 45.9594 6.72813 46.6562 7.59375 46.6562H40.4063C41.2719 46.6562 41.9688 45.9594 41.9688 45.0937V38.8437C41.9688 37.9781 41.2719 37.2812 40.4063 37.2812Z" fill="#2C5170"/>
<path id="path11224" d="M23.568 1.34378C21.6514 1.34734 19.7585 1.78422 18.0214 2.624C14.9666 4.10812 12.5769 6.75018 11.3442 10.0062L10.9139 9.9009C7.85564 9.72108 4.8888 11.1593 3.06632 13.7644C1.06616 16.6235 0.78163 20.4049 2.32932 23.5514C3.877 26.6979 6.99624 28.6784 10.4027 28.6784H39.2449C42.6008 28.6784 45.5388 26.3418 46.4074 22.9807C47.276 19.6197 45.8591 16.0718 42.9528 14.3321C41.0056 13.1664 38.7161 13.0121 36.7028 13.7736C36.3919 10.1827 34.7252 6.86459 32.0656 4.54201C29.6852 2.47068 26.6756 1.33794 23.568 1.34378Z" fill="#E4EFF8"/>
<path id="path11226" d="M43.5488 14.7314C44.9301 16.5878 45.4583 19.0478 44.8458 21.4178C43.9773 24.7789 41.0392 27.1155 37.6833 27.1155H8.84118C6.82471 27.1155 4.91206 26.4164 3.36328 25.1975C5.06298 27.3724 7.63804 28.678 10.4037 28.678H39.2459C42.6017 28.678 45.5397 26.3414 46.4083 22.9803C47.2152 19.8582 46.0481 16.577 43.5488 14.7314Z" fill="#C4DCF0"/>
<path id="path11228" d="M23.5911 1.34375C23.3809 1.34966 23.1707 1.36088 22.9609 1.37732C29.8616 1.8852 35.2095 7.83803 35.2091 15.0111C35.2091 15.0111 36.7274 13.7638 36.7173 13.7611C36.1084 6.79906 30.4642 1.34429 23.5911 1.34375Z" fill="#C4DCF0"/>
<path id="path11243" d="M27.125 20.0937L27.9062 31.0312C27.9679 31.8947 27.2094 32.5937 26.3437 32.5937H21.6562C20.7906 32.5937 20.0398 31.8952 20.0937 31.0312L20.875 20.0937H16.1875L24 9.9375L31.8125 20.0937H27.125Z" fill="#549AD4"/>
<path id="path11247" d="M24 9.9375L23.2188 10.9537L30.25 20.0937H31.8125L24 9.9375ZM25.5625 19.3125L26.3438 31.0312C26.4054 31.8947 25.6469 32.5938 24.7812 32.5938H26.3438C27.2094 32.5938 27.9679 31.8947 27.9062 31.0312L27.125 19.3125H25.5625Z" fill="#3588CB"/>
<path id="path3537" d="M22.6495 0.596177C17.3398 0.967064 12.8925 4.38618 10.8423 9.11821C7.54752 8.96018 4.38128 10.5289 2.42856 13.3205C0.263263 16.4159 -0.0369609 20.5107 1.629 23.8979C3.30262 27.3006 6.69399 29.4612 10.4028 29.4612H19.4238L19.317 30.9688C19.2207 32.3162 20.3654 33.369 21.6577 33.369H26.3422C27.6345 33.369 28.7791 32.3162 28.6828 30.9688L28.576 29.4612H39.2404C42.9585 29.4612 46.2031 26.8797 47.1597 23.1777C48.113 19.4887 46.5609 15.5879 43.3496 13.6653C41.744 12.7041 39.9206 12.36 38.1708 12.5987C37.9016 12.6355 37.6449 12.6812 37.3804 12.7452C36.3229 5.86144 30.6666 0.773272 24.0137 0.568715C23.5631 0.554838 23.1081 0.564287 22.6495 0.596177ZM35.8743 13.2717C34.9832 13.6853 34.1555 14.2697 33.4375 15.0142C32.7001 15.7641 33.8392 16.863 34.5621 16.0991C36.692 13.8904 39.9465 13.4482 42.547 15.0051C45.1474 16.5619 46.4297 19.7544 45.646 22.787C44.8644 25.8118 42.2331 27.8987 39.2404 27.8987H28.4646L27.9626 20.8705H31.8155C32.4623 20.8684 32.8259 20.1262 32.4319 19.6132L24.6179 9.45849C24.4615 9.25711 24.2303 9.15636 23.9999 9.15636C23.7696 9.15636 23.5384 9.25711 23.3819 9.45849L15.5679 19.6132C15.174 20.1262 15.5376 20.8684 16.1844 20.8705H20.0372L19.5352 27.8987H10.4028C7.31181 27.8987 4.45264 26.098 3.0313 23.2082C1.60995 20.3184 1.87435 16.8386 3.70878 14.2162C5.26154 11.9964 7.70149 10.7086 10.2731 10.6685C9.85653 12.0389 9.6292 13.5075 9.6292 15.0127C9.60557 16.0776 11.2153 16.0776 11.1917 15.0127C11.21 8.19844 16.2573 2.61286 22.7594 2.15868C23.1657 2.13033 23.5686 2.12216 23.9679 2.13423C29.9568 2.31614 35.0403 6.96261 35.8743 13.2717ZM23.9999 11.2117L30.2225 19.308H27.1264C26.6736 19.3085 26.3164 19.6925 26.3482 20.1442L27.1264 31.0787C27.1536 31.4581 26.7871 31.805 26.3421 31.805H21.6577C21.2127 31.805 20.8462 31.4581 20.8734 31.0787L21.6516 20.1442C21.6834 19.6925 21.3262 19.3085 20.8734 19.308H17.7774L23.9999 11.2117ZM23.9999 34.9361C23.6088 34.9361 23.218 35.1972 23.2187 35.7189V37.2814C23.2173 38.3247 24.7826 38.3247 24.7812 37.2814V35.7189C24.7819 35.1972 24.391 34.9361 23.9999 34.9361ZM20.0937 36.4986C19.7026 36.4986 19.3117 36.7597 19.3124 37.2814V38.8439C19.311 39.8872 20.8764 39.8872 20.8749 38.8439V37.2814C20.8756 36.7597 20.4848 36.4986 20.0937 36.4986ZM27.9062 36.4986C27.5151 36.4986 27.1242 36.7597 27.1249 37.2814V38.8439C27.1235 39.8872 28.6889 39.8872 28.6874 38.8439V37.2814C28.6881 36.7597 28.2973 36.4986 27.9062 36.4986ZM7.59215 36.5001C6.28564 36.5001 5.24992 37.5605 5.24992 38.8454V45.0969C5.24984 46.4002 6.30722 47.4376 7.59215 47.4376H40.4077C41.6926 47.4376 42.75 46.4002 42.7499 45.0969V38.8454C42.7499 37.5605 41.7142 36.5001 40.4077 36.5001H38.8452C37.5328 36.5001 36.501 37.5605 36.4999 38.8454L36.497 41.1861H11.5031L11.5001 38.8454C11.4988 37.5605 10.4672 36.5001 9.15481 36.5001H7.59215ZM7.59215 38.0626H9.15464C9.60096 38.0626 9.93742 38.4144 9.93742 38.8454V41.9704C9.9389 42.3998 10.2878 42.7471 10.7171 42.7486H37.2827C37.712 42.7471 38.0609 42.3998 38.0624 41.9704V38.8454C38.0624 38.4144 38.3989 38.0626 38.8452 38.0626H40.4077C40.854 38.0626 41.1874 38.4235 41.1874 38.8454V45.0969C41.1874 45.5158 40.854 45.8751 40.4077 45.8751H7.59214C7.14582 45.8751 6.81242 45.5158 6.81242 45.0969V38.8454C6.81242 38.4235 7.14582 38.0626 7.59215 38.0626Z" fill="#333333"/>
</g>
</svg>
